<?xml version="1.0" encoding="UTF-8" standalone="no"?>
<svg
   xmlns:dc="http://purl.org/dc/elements/1.1/"
   xmlns:cc="http://creativecommons.org/ns#"
   xmlns:rdf="http://www.w3.org/1999/02/22-rdf-syntax-ns#"
   xmlns:svg="http://www.w3.org/2000/svg"
   xmlns="http://www.w3.org/2000/svg"
   xmlns:sodipodi="http://sodipodi.sourceforge.net/DTD/sodipodi-0.dtd"
   xmlns:inkscape="http://www.inkscape.org/namespaces/inkscape"
   preserveAspectRatio="none"
   viewBox="0 0 487.14001 99.220711"
   version="1.1"
   id="svg46"
   sodipodi:docname="logo2.svg"
   width="487.14001"
   height="99.220711"
   inkscape:version="1.0.1 (3bc2e813f5, 2020-09-07)">
  <metadata
     id="metadata52">
    <rdf:RDF>
      <cc:Work
         rdf:about="">
        <dc:format>image/svg+xml</dc:format>
        <dc:type
           rdf:resource="http://purl.org/dc/dcmitype/StillImage" />
        <dc:title></dc:title>
      </cc:Work>
    </rdf:RDF>
  </metadata>
  <defs
     id="defs50" />
  <sodipodi:namedview
     pagecolor="#ffffff"
     bordercolor="#666666"
     borderopacity="1"
     objecttolerance="10"
     gridtolerance="10"
     guidetolerance="10"
     inkscape:pageopacity="0"
     inkscape:pageshadow="2"
     inkscape:window-width="2560"
     inkscape:window-height="1387"
     id="namedview48"
     showgrid="false"
     borderlayer="false"
     inkscape:showpageshadow="false"
     inkscape:pagecheckerboard="true"
     showborder="true"
     fit-margin-top="0"
     fit-margin-left="0"
     fit-margin-right="0"
     fit-margin-bottom="0"
     inkscape:zoom="1.0429688"
     inkscape:cx="476.8887"
     inkscape:cy="49.610083"
     inkscape:window-x="-8"
     inkscape:window-y="-8"
     inkscape:window-maximized="1"
     inkscape:current-layer="svg46" />
  <g
     text-anchor="middle"
     id="g44"
     transform="translate(-268.43,-334.38992)">
    <g
       style="line-height:1;font-variant-ligatures:normal;text-align:center"
       font-weight="400"
       font-size="72px"
       font-family="'Brandmark Stencil 1'"
       id="g42">
      <path
         style="line-height:1;font-variant-ligatures:normal;text-align:center"
         d="m 297.09,334.4 h -26.2 c -1.3,0 -2.46,1 -2.46,2.44 0,1.3 1.16,2.45 2.45,2.45 h 26.21 a 44.83,44.83 0 0 1 44.78,44.78 45.04,45.04 0 0 1 -13.1,31.68 45.04,45.04 0 0 1 -31.68,13.1 h -26.2 c -1.3,0 -2.46,1.01 -2.46,2.45 0,1.3 1.16,2.3 2.45,2.3 h 26.21 a 48.54,48.54 0 0 0 35,-14.54 48.54,48.54 0 0 0 14.54,-34.99 c 0,-27.36 -22.18,-49.68 -49.54,-49.68 z m -25.92,86.82 c 1.44,0 2.45,-1 2.45,-2.44 v -69.56 c 0,-1.3 -1.01,-2.44 -2.45,-2.44 a 2.52,2.52 0 0 0 -2.45,2.44 v 69.56 a 2.43,2.43 0 0 0 2.45,2.44 z"
         fill="#1d2330"
         id="path32" />
      <path
         style="line-height:1;font-variant-ligatures:normal;text-align:center"
         d="m 387,339.29 h 55.3 c 1.3,0 2.45,-1.15 2.45,-2.45 a 2.43,2.43 0 0 0 -2.45,-2.45 H 387 c -1.3,0 -2.44,1.01 -2.44,2.45 0,1.3 1.15,2.45 2.44,2.45 z m 0,81.93 c 1.3,0 2.45,-1 2.45,-2.44 v -33.84 h 51.84 c 1.3,0 2.45,-1.16 2.45,-2.45 0,-1.3 -1.15,-2.45 -2.45,-2.45 h -51.84 v -30.82 c 0,-1.3 -1.15,-2.44 -2.45,-2.44 a 2.52,2.52 0 0 0 -2.44,2.44 v 69.56 a 2.43,2.43 0 0 0 2.44,2.44 z m 55.3,7.64 H 387 c -1.3,0 -2.44,1 -2.44,2.44 0,1.3 1.15,2.3 2.44,2.3 h 55.3 c 1.3,0 2.45,-1 2.45,-2.3 a 2.43,2.43 0 0 0 -2.45,-2.44 z"
         fill="#482133"
         id="path34" />
      <path
         style="line-height:1;font-variant-ligatures:normal;text-align:center"
         d="m 555.25,415.75 a 45.04,45.04 0 0 1 -31.68,13.1 44.83,44.83 0 0 1 -44.78,-44.78 44.74,44.74 0 0 1 44.78,-44.78 c 11.95,0 23.19,4.6 31.68,13.1 0.87,0.87 2.45,0.87 3.46,0 0.86,-1 0.86,-2.59 0,-3.45 a 49.69,49.69 0 0 0 -84.82,35.14 c 0,27.35 22.32,49.53 49.68,49.53 a 49.11,49.11 0 0 0 35.14,-14.55 c 0.86,-0.86 0.86,-2.44 0,-3.3 -1,-1.02 -2.6,-1.02 -3.46,0 z"
         fill="#721f37"
         id="path36" />
      <path
         style="line-height:1;font-variant-ligatures:normal;text-align:center"
         d="m 643.8,381.77 a 25.45,25.45 0 0 0 13.1,-22.18 25.14,25.14 0 0 0 -25.2,-25.2 h -34.56 c -1.3,0 -2.45,1.01 -2.45,2.45 0,1.3 1.15,2.45 2.45,2.45 h 34.56 a 20.4,20.4 0 0 1 20.45,20.3 20.53,20.53 0 0 1 -20.45,20.45 h -32.11 v -30.82 c 0,-1.3 -1.16,-2.44 -2.45,-2.44 a 2.52,2.52 0 0 0 -2.45,2.44 v 69.56 a 2.43,2.43 0 0 0 2.45,2.44 c 1.3,0 2.45,-1 2.45,-2.44 v -33.99 h 34.84 a 22,22 0 0 1 21.9,22.03 22,22 0 0 1 -21.9,22.04 h -37.3 c -1.29,0 -2.44,1 -2.44,2.44 0,1.3 1.15,2.3 2.45,2.3 h 37.3 a 26.83,26.83 0 0 0 26.78,-26.78 26.6,26.6 0 0 0 -17.43,-25.05 z"
         fill="#9d1c3a"
         id="path38" />
      <path
         style="line-height:1;font-variant-ligatures:normal;text-align:center"
         d="m 704.16,334.4 c -1.3,0 -2.45,1 -2.45,2.44 v 94.46 c 0,1.3 1.15,2.3 2.45,2.3 1.3,0 2.45,-1 2.45,-2.3 v -94.46 a 2.43,2.43 0 0 0 -2.45,-2.45 z m 48.96,94.46 h -36.58 c -1.3,0 -2.45,1 -2.45,2.44 0,1.3 1.16,2.3 2.45,2.3 h 36.58 c 1.3,0 2.45,-1 2.45,-2.3 a 2.43,2.43 0 0 0 -2.45,-2.44 z"
         fill="#c71a3d"
         id="path40" />
    </g>
  </g>
</svg>
