<svg xmlns="http://www.w3.org/2000/svg" height="768" width="1024"><g text-anchor="middle"><g style="line-height:1;font-variant-ligatures:normal;text-align:center" font-weight="400" font-size="72" font-family="Brandmark Stencil 1"><path style="line-height:1;font-variant-ligatures:normal;text-align:center" d="M297.09 334.4h-26.2c-1.3 0-2.46 1-2.46 2.44 0 1.3 1.16 2.45 2.45 2.45h26.21a44.83 44.83 0 0144.78 44.78 45.04 45.04 0 01-13.1 31.68 45.04 45.04 0 01-31.68 13.1h-26.2c-1.3 0-2.46 1.01-2.46 2.45 0 1.3 1.16 2.3 2.45 2.3h26.21a48.54 48.54 0 0035-14.54 48.54 48.54 0 0014.54-34.99c0-27.36-22.18-49.68-49.54-49.68zm-25.92 86.82c1.44 0 2.45-1 2.45-2.44v-69.56c0-1.3-1.01-2.44-2.45-2.44a2.52 2.52 0 00-2.45 2.44v69.56a2.43 2.43 0 002.45 2.44z" fill="#1d2330"/><path style="line-height:1;font-variant-ligatures:normal;text-align:center" d="M387 339.29h55.3c1.3 0 2.45-1.15 2.45-2.45a2.43 2.43 0 00-2.45-2.45H387c-1.3 0-2.44 1.01-2.44 2.45 0 1.3 1.15 2.45 2.44 2.45zm0 81.93c1.3 0 2.45-1 2.45-2.44v-33.84h51.84c1.3 0 2.45-1.16 2.45-2.45 0-1.3-1.15-2.45-2.45-2.45h-51.84v-30.82c0-1.3-1.15-2.44-2.45-2.44a2.52 2.52 0 00-2.44 2.44v69.56a2.43 2.43 0 002.44 2.44zm55.3 7.64H387c-1.3 0-2.44 1-2.44 2.44 0 1.3 1.15 2.3 2.44 2.3h55.3c1.3 0 2.45-1 2.45-2.3a2.43 2.43 0 00-2.45-2.44z" fill="#482133"/><path style="line-height:1;font-variant-ligatures:normal;text-align:center" d="M555.25 415.75a45.04 45.04 0 01-31.68 13.1 44.83 44.83 0 01-44.78-44.78 44.74 44.74 0 0144.78-44.78c11.95 0 23.19 4.6 31.68 13.1.87.87 2.45.87 3.46 0 .86-1 .86-2.59 0-3.45a49.69 49.69 0 00-84.82 35.14c0 27.35 22.32 49.53 49.68 49.53a49.11 49.11 0 0035.14-14.55c.86-.86.86-2.44 0-3.3-1-1.02-2.6-1.02-3.46 0z" fill="#721f37"/><path style="line-height:1;font-variant-ligatures:normal;text-align:center" d="M643.8 381.77a25.45 25.45 0 0013.1-22.18 25.14 25.14 0 00-25.2-25.2h-34.56c-1.3 0-2.45 1.01-2.45 2.45 0 1.3 1.15 2.45 2.45 2.45h34.56a20.4 20.4 0 0120.45 20.3 20.53 20.53 0 01-20.45 20.45h-32.11v-30.82c0-1.3-1.16-2.44-2.45-2.44a2.52 2.52 0 00-2.45 2.44v69.56a2.43 2.43 0 002.45 2.44c1.3 0 2.45-1 2.45-2.44v-33.99h34.84a22 22 0 0121.9 22.03 22 22 0 01-21.9 22.04h-37.3c-1.29 0-2.44 1-2.44 2.44 0 1.3 1.15 2.3 2.45 2.3h37.3a26.83 26.83 0 0026.78-26.78 26.6 26.6 0 00-17.43-25.05z" fill="#9d1c3a"/><path style="line-height:1;font-variant-ligatures:normal;text-align:center" d="M704.16 334.4c-1.3 0-2.45 1-2.45 2.44v94.46c0 1.3 1.15 2.3 2.45 2.3 1.3 0 2.45-1 2.45-2.3v-94.46a2.43 2.43 0 00-2.45-2.45zm48.96 94.46h-36.58c-1.3 0-2.45 1-2.45 2.44 0 1.3 1.16 2.3 2.45 2.3h36.58c1.3 0 2.45-1 2.45-2.3a2.43 2.43 0 00-2.45-2.44z" fill="#c71a3d"/></g></g></svg>